<?xml version="1.0" encoding="utf-8"?>
<!-- Generator: Adobe Illustrator 21.0.0, SVG Export Plug-In . SVG Version: 6.00 Build 0)  -->
<svg version="1.1" id="Layer_1" xmlns="http://www.w3.org/2000/svg" xmlns:xlink="http://www.w3.org/1999/xlink" x="0px" y="0px"
	 viewBox="0 0 142.5 26.5" style="enable-background:new 0 0 142.5 26.5;" xml:space="preserve">
<style type="text/css">
	.st0{fill:#6C65AD;}
</style>
<g>
	<g>
		<g>
			<path class="st0" d="M49.5,19.3c-0.3,1.6-1.8,2.8-3.5,2.8H26.1l2.1-2.1H46c0.7,0,1.3-0.5,1.4-1.1c0.1-0.4,0.1-0.9,0-1.4
				c-0.2-1.6-1.6-2.9-3.2-3.2c-0.7-0.1-1.5,0-2.1,0.3c-0.4,0.2-0.8,0.1-1.1-0.1c-0.3-0.2-0.5-0.6-0.4-1c0.2-1.1-0.1-2.2-0.8-3.2
				c-0.7-0.9-1.7-1.5-2.8-1.7c-0.3,0-0.6-0.1-0.9,0c0-0.3,0-0.6,0-0.9c0-0.4-0.1-0.8-0.2-1.2c0.5,0,1,0,1.4,0.1
				c1.7,0.3,3.2,1.2,4.2,2.6c0.7,1,1.1,2,1.2,3.2c0.6-0.1,1.2-0.1,1.7,0c2.6,0.4,4.6,2.4,5,4.9C49.7,17.9,49.7,18.6,49.5,19.3z"/>
			<path class="st0" d="M15,22.1H2.4c-0.3,0-0.6-0.1-0.8-0.3c-0.6-0.7-1-1.6-1-2.5c0-1.6,0.9-2.9,2.3-3.4c-0.2-0.7-0.3-1.5-0.3-2.2
				c0-5,4-9,9-9c0.6,0,1.1,0.1,1.7,0.2c-0.5,0.6-0.8,1.2-1,2c-0.2,0-0.5,0-0.7,0c-3.8,0-6.9,3.1-6.9,6.9c0,0.9,0.2,1.8,0.5,2.6
				c0.1,0.3,0.1,0.7-0.1,1s-0.5,0.5-0.9,0.5c-0.9,0-1.6,0.7-1.6,1.6c0,0.3,0.1,0.5,0.2,0.7h9.9L15,22.1z"/>
			<path class="st0" d="M27.5,2.6c0.2,0,0.4,0,0.6,0c2.8,0.3,5,2.5,5.2,5.3c0.1,0.6,0,1.3-0.1,1.9c-0.2,1,0.3,2,1.2,2.4
				c0.4,0.2,0.7,0.6,0.7,1.1c0,0.3-0.3,0.5-0.6,0.5h-10c-1.2,0-2.1,0.9-2.1,2.1v0.6c0,1.2,0.9,2.1,2.1,2.1h1l-5,4.9l-5-4.9h1
				c1.2,0,2.1-0.9,2.1-2.1v-0.6c0-1.2-0.9-2.1-2.1-2.1h-5.8c-0.4,0-0.8-0.3-0.9-0.7c-0.1-0.3-0.1-0.7,0-1c0.2-1.2,1.1-2.1,2.3-2.3
				c0.1,0,0.3,0,0.4,0c0.1,0,0.2,0,0.3,0s0.2,0,0.2,0c1,0,1.9-0.8,2.1-1.8c0.2-1.3,1.2-2.4,2.6-2.6c0.2,0,0.3,0,0.5,0
				c0.6,0,1.1,0.2,1.6,0.5c0.3,0.2,0.7,0.3,1.1,0.3c0.7,0,1.4-0.3,1.8-0.9C23.7,3.6,25.5,2.6,27.5,2.6 M27.5,0.5
				c-2.7,0-5.2,1.3-6.6,3.6c-0.8-0.5-1.8-0.8-2.7-0.8c-0.3,0-0.5,0-0.8,0.1c-2.3,0.3-4,2.2-4.3,4.4c-0.2,0-0.3,0-0.5,0s-0.5,0-0.7,0
				c-2.1,0.3-3.7,2-4.1,4c-0.1,0.6-0.1,1.2,0.1,1.7c0.3,1.4,1.5,2.4,2.9,2.4h5.8v0.6H13c-0.4,0-0.8,0.3-1,0.7
				c-0.2,0.4-0.1,0.8,0.2,1.1l7.6,7.4c0.2,0.2,0.5,0.3,0.7,0.3c0.3,0,0.5-0.1,0.7-0.3l7.6-7.4c0.3-0.3,0.4-0.8,0.2-1.1
				c-0.2-0.4-0.5-0.7-1-0.7h-3.6v-0.6h10c1.5,0,2.6-1.1,2.7-2.6l0,0c0-1.4-0.8-2.5-2-3.1c0.2-0.8,0.3-1.7,0.2-2.5
				C35,3.9,32,0.9,28.2,0.5C28.1,0.5,27.8,0.5,27.5,0.5L27.5,0.5z"/>
		</g>
	</g>
	<g>
		<path class="st0" d="M56.9,13.3h2.5V17c-0.5,0.4-1.1,0.6-1.8,0.8c-0.7,0.2-1.4,0.4-2,0.4c-0.9,0-1.7-0.2-2.5-0.6
			c-0.7-0.4-1.3-0.9-1.7-1.7c-0.4-0.7-0.6-1.5-0.6-2.4c0-0.9,0.2-1.7,0.7-2.3c0.4-0.7,1-1.2,1.7-1.7c0.7-0.4,1.6-0.6,2.5-0.6
			c0.7,0,1.4,0.1,2,0.4c0.7,0.2,1.3,0.6,1.7,1l-1.7,2c-0.3-0.3-0.7-0.5-1-0.7c-0.4-0.1-0.8-0.3-1.2-0.3s-0.7,0.1-1,0.3
			s-0.5,0.4-0.7,0.8c-0.1,0.4-0.2,0.7-0.2,1.1c0,0.4,0.1,0.8,0.3,1.1c0.1,0.4,0.4,0.6,0.7,0.8c0.3,0.2,0.7,0.3,1,0.3
			c0.3,0,0.7-0.1,1.2-0.3C56.9,15.4,56.9,13.3,56.9,13.3z"/>
		<path class="st0" d="M66.8,11.4c-0.6-0.2-1.1-0.3-1.5-0.3s-0.5,0.1-0.5,0.4s0.1,0.4,0.4,0.4c0.2,0.1,0.6,0.2,1.1,0.4
			c0.7,0.1,1.2,0.4,1.6,0.5c0.4,0.1,0.8,0.4,1.1,0.9c0.3,0.4,0.4,0.9,0.4,1.5s-0.1,1.2-0.5,1.6c-0.4,0.4-0.8,0.7-1.3,0.9
			C67,17.9,66.4,18,65.7,18c-0.8,0-1.6-0.1-2.3-0.4c-0.7-0.2-1.5-0.6-2-1l1.1-2.2c0.4,0.4,1,0.7,1.7,1c0.7,0.3,1.2,0.4,1.7,0.4
			c0.2,0,0.4-0.1,0.5-0.1s0.2-0.2,0.2-0.4c0-0.2-0.1-0.4-0.4-0.4c-0.2-0.1-0.6-0.2-1.1-0.4c-0.7-0.1-1.2-0.3-1.5-0.5
			s-0.8-0.4-1.1-0.8c-0.3-0.4-0.4-0.9-0.4-1.5c0-0.6,0.1-1.1,0.4-1.5c0.3-0.4,0.7-0.8,1.3-1c0.6-0.2,1.2-0.4,2-0.4
			c0.7,0,1.4,0.1,2,0.3S69,9.7,69.5,10l-1.1,2.2C67.9,11.9,67.3,11.6,66.8,11.4z"/>
		<path class="st0" d="M71.3,9.1h3.1l2.2,4.6l2.2-4.6h3.1v8.8h-2.5v-4.8l-1.7,4h-1.9l-1.7-4v4.8h-2.5V9.1H71.3z"/>
		<path class="st0" d="M89.4,11.4c-0.6-0.2-1.1-0.3-1.5-0.3c-0.4,0-0.5,0.1-0.5,0.4s0.1,0.4,0.4,0.4c0.2,0.1,0.6,0.2,1.1,0.4
			c0.7,0.1,1.2,0.4,1.6,0.5c0.4,0.1,0.8,0.4,1.1,0.9c0.3,0.4,0.4,0.9,0.4,1.5s-0.1,1.2-0.5,1.6c-0.4,0.4-0.8,0.7-1.3,0.9
			C89.6,17.9,89,18,88.3,18c-0.8,0-1.6-0.1-2.3-0.4s-1.5-0.6-2-1l1.1-2.2c0.4,0.4,1,0.7,1.7,1c0.7,0.3,1.2,0.4,1.7,0.4
			c0.2,0,0.4-0.1,0.5-0.1c0.1-0.1,0.2-0.2,0.2-0.4c0-0.2-0.1-0.4-0.4-0.4c-0.2-0.1-0.6-0.2-1.1-0.4c-0.7-0.1-1.2-0.3-1.5-0.5
			c-0.4-0.2-0.8-0.4-1.1-0.8c-0.3-0.4-0.4-0.9-0.4-1.5c0-0.6,0.1-1.1,0.4-1.5s0.7-0.8,1.3-1c0.6-0.2,1.2-0.4,2-0.4
			c0.7,0,1.4,0.1,2,0.3c0.7,0.2,1.3,0.4,1.8,0.8l-1.1,2.2C90.6,11.9,90,11.6,89.4,11.4z"/>
		<path class="st0" d="M94,9.1h2.9v8.8H94V9.1z"/>
		<path class="st0" d="M99.4,9.1h3.1l2.2,4.6l2.2-4.6h3.1v8.8h-2.5v-4.8l-1.7,4h-1.9l-1.7-4v4.8h-2.5V9.1H99.4z"/>
		<path class="st0" d="M119.4,9.5c0.7,0.4,1.3,0.9,1.7,1.7c0.4,0.7,0.7,1.5,0.7,2.3c0,0.9-0.2,1.7-0.7,2.4c-0.4,0.7-1,1.2-1.7,1.7
			c-0.7,0.4-1.6,0.6-2.5,0.6c-0.9,0-1.7-0.2-2.5-0.6c-0.7-0.4-1.3-0.9-1.7-1.7c-0.4-0.7-0.7-1.5-0.7-2.4s0.2-1.7,0.7-2.4
			c0.4-0.7,1-1.2,1.7-1.6c0.7-0.4,1.6-0.6,2.5-0.6C117.8,8.9,118.6,9.1,119.4,9.5z M116,11.6c-0.3,0.2-0.5,0.4-0.7,0.8
			c-0.1,0.4-0.3,0.7-0.3,1.1c0,0.4,0.1,0.8,0.3,1.1c0.1,0.4,0.4,0.6,0.7,0.8c0.3,0.2,0.6,0.3,0.9,0.3c0.4,0,0.7-0.1,0.9-0.3
			c0.3-0.2,0.5-0.4,0.7-0.8c0.1-0.4,0.2-0.7,0.2-1.1c0-0.4-0.1-0.8-0.2-1.1c-0.1-0.4-0.4-0.6-0.7-0.8c-0.3-0.2-0.6-0.3-0.9-0.3
			C116.5,11.3,116.2,11.4,116,11.6z"/>
		<path class="st0" d="M128.8,11.4c-0.6-0.2-1.1-0.3-1.5-0.3c-0.4,0-0.5,0.1-0.5,0.4s0.1,0.4,0.4,0.4c0.2,0.1,0.6,0.2,1.1,0.4
			c0.7,0.1,1.2,0.4,1.6,0.5c0.4,0.1,0.8,0.4,1.1,0.9c0.3,0.4,0.4,0.9,0.4,1.5s-0.1,1.2-0.5,1.6c-0.4,0.4-0.8,0.7-1.3,0.9
			c-0.6,0.2-1.2,0.3-1.9,0.3c-0.8,0-1.6-0.1-2.3-0.4c-0.7-0.2-1.5-0.6-2-1l1.1-2.2c0.4,0.4,1,0.7,1.7,1c0.7,0.3,1.2,0.4,1.7,0.4
			c0.2,0,0.4-0.1,0.5-0.1s0.2-0.2,0.2-0.4c0-0.2-0.1-0.4-0.4-0.4c-0.2-0.1-0.6-0.2-1.1-0.4c-0.7-0.1-1.2-0.3-1.5-0.5
			c-0.4-0.2-0.8-0.4-1.1-0.8c-0.3-0.4-0.4-0.9-0.4-1.5c0-0.6,0.1-1.1,0.4-1.5c0.3-0.4,0.7-0.8,1.3-1c0.6-0.2,1.2-0.4,2-0.4
			c0.7,0,1.4,0.1,2,0.3s1.3,0.4,1.8,0.8l-1.1,2.2C129.9,11.9,129.4,11.6,128.8,11.4z"/>
		<path class="st0" d="M133.4,9.1h2.9v3.4h2.8V9.1h2.9v8.8H139v-3.2h-2.8v3.2h-2.9V9.1z"/>
	</g>
</g>
</svg>
