<svg id="Group_59" data-name="Group 59" xmlns="http://www.w3.org/2000/svg" viewBox="0 0 63.8 56.3">
  <defs>
    <style>
      .cls-1 {
        fill: #f8973f;
      }
    </style>
  </defs>
  <g id="Group_58" data-name="Group 58">
    <g id="Group_51" data-name="Group 51">
      <path id="Path_38" data-name="Path 38" class="cls-1" d="M57.4,20.1l4.1,10L39.2,52.4l-4.1-10L57.4,20.1m.7-3.5L32.8,41.9l5.7,14L63.8,30.6l-5.7-14Z"/>
    </g>
    <g id="Group_52" data-name="Group 52">
      <path id="Path_39" data-name="Path 39" class="cls-1" d="M26,27.8l24.6-5-2.9,2.9-24.6,5Z"/>
    </g>
    <g id="Group_53" data-name="Group 53">
      <path id="Path_40" data-name="Path 40" class="cls-1" d="M50.2,18.2l-14.8,3,3-3H50.2m7-2H37.6l-8.3,8.3,24.6-5,3.3-3.3Z"/>
    </g>
    <g id="Group_54" data-name="Group 54">
      <path id="Path_41" data-name="Path 41" class="cls-1" d="M35.1,35.5l-3.9,3.9H17.3l.3-.3,17.5-3.6m6.1-3.3-24.6,5-4.2,4.2H32l9.2-9.2Z"/>
    </g>
    <g id="Group_55" data-name="Group 55">
      <path id="Path_42" data-name="Path 42" class="cls-1" d="M30.6,44.2l4.1,10H9l4.1-10H30.6m1.3-2H11.7L6,56.3H37.6L31.9,42.2Z"/>
    </g>
    <g id="Group_56" data-name="Group 56">
      <path id="Path_43" data-name="Path 43" class="cls-1" d="M12.9,11.4,11.4,22.8,0,24.3l11.4,1.5,1.5,11.4,1.5-11.4,11.4-1.5L14.4,22.8,12.9,11.4Zm0,19.2-.7-5.5-5.5-.7,5.5-.7.7-5.5.7,5.5,5.5.7-5.5.7-.7,5.5Z"/>
    </g>
    <g id="Group_57" data-name="Group 57">
      <path id="Path_44" data-name="Path 44" class="cls-1" d="M41.3,0,33.6,5.9,25.9,0l5.9,7.7-5.9,7.7,7.7-5.9,7.7,5.9L35.4,7.7,41.3,0ZM30.5,10.8l2.3-3-2.3-3,3,2.3,3-2.3-2.3,3,2.3,3-3-2.3-3,2.3Z"/>
    </g>
  </g>
</svg>
