<svg id="Group_50" data-name="Group 50" xmlns="http://www.w3.org/2000/svg" viewBox="0 0 63.8 56.3">
  <defs>
    <style>
      .cls-1 {
        fill: #bebdc1;
      }
    </style>
  </defs>
  <g id="Group_49" data-name="Group 49">
    <g id="Group_42" data-name="Group 42">
      <path id="Path_31" data-name="Path 31" class="cls-1" d="M57.4,20.1l4.1,10L39.2,52.4l-4.1-10L57.4,20.1m.7-3.5L32.8,41.9l5.7,14L63.8,30.6l-5.7-14Z"/>
    </g>
    <g id="Group_43" data-name="Group 43">
      <path id="Path_32" data-name="Path 32" class="cls-1" d="M26,27.8l24.6-5-2.9,2.9-24.6,5Z"/>
    </g>
    <g id="Group_44" data-name="Group 44">
      <path id="Path_33" data-name="Path 33" class="cls-1" d="M50.2,18.2l-14.8,3,3-3H50.2m7-2H37.6l-8.3,8.3,24.6-5,3.3-3.3Z"/>
    </g>
    <g id="Group_45" data-name="Group 45">
      <path id="Path_34" data-name="Path 34" class="cls-1" d="M35.1,35.5l-3.9,3.9H17.3l.3-.3,17.5-3.6m6.1-3.3-24.6,5-4.2,4.2H32l9.2-9.2Z"/>
    </g>
    <g id="Group_46" data-name="Group 46">
      <path id="Path_35" data-name="Path 35" class="cls-1" d="M30.6,44.2l4.1,10H9l4.1-10H30.6m1.3-2H11.7L6,56.3H37.6L31.9,42.2Z"/>
    </g>
    <g id="Group_47" data-name="Group 47">
      <path id="Path_36" data-name="Path 36" class="cls-1" d="M12.9,11.4,11.4,22.8,0,24.3l11.4,1.5,1.5,11.4,1.5-11.4,11.4-1.5L14.4,22.8,12.9,11.4Zm0,19.2-.7-5.5-5.5-.7,5.5-.7.7-5.5.7,5.5,5.5.7-5.5.7-.7,5.5Z"/>
    </g>
    <g id="Group_48" data-name="Group 48">
      <path id="Path_37" data-name="Path 37" class="cls-1" d="M41.3,0,33.6,5.9,25.9,0l5.9,7.7-5.9,7.7,7.7-5.9,7.7,5.9L35.4,7.7,41.3,0ZM30.5,10.8l2.3-3-2.3-3,3,2.3,3-2.3-2.3,3,2.3,3-3-2.3-3,2.3Z"/>
    </g>
  </g>
</svg>
