<svg xmlns="http://www.w3.org/2000/svg" viewBox="0 0 48.1 64.6">
  <defs>
    <style>
      .cls-1 {
        fill: #95a5a6;
      }
    </style>
  </defs>
  <g id="Group_40" data-name="Group 40" transform="translate(0 -952.4)">
    <path id="Path_30" data-name="Path 30" class="cls-1" d="M8.4,953.2l-4.1,8.2H1.5A1.538,1.538,0,0,0,0,962.9v9a1.538,1.538,0,0,0,1.5,1.5H3.9l3.6,42.2A1.7,1.7,0,0,0,9,1017H39.1a1.6,1.6,0,0,0,1.5-1.4l3.6-42.2h2.4a1.538,1.538,0,0,0,1.5-1.5v-9a1.538,1.538,0,0,0-1.5-1.5H43.8l-4.1-8.2a1.441,1.441,0,0,0-1.3-.8H9.8A1.486,1.486,0,0,0,8.4,953.2Zm2.3,2.2H37.4l3,6H7.7Zm-7.7,9H45.1v6H3Zm3.9,9H41.2L40,987H33.5a11.363,11.363,0,0,0-9.4-5.3,11.13,11.13,0,0,0-9.4,5.3H8.1Zm17.2,11.3a8.147,8.147,0,0,1,7.3,4.4,1.441,1.441,0,0,0,1.3.8h7l-.5,6H32.7a1.441,1.441,0,0,0-1.3.8,8.353,8.353,0,0,1-7.3,4.5,8.055,8.055,0,0,1-7.3-4.5,1.561,1.561,0,0,0-1.3-.8H8.9l-.5-6h7a1.34,1.34,0,0,0,1.3-.8,8.421,8.421,0,0,1,7.4-4.4ZM9.1,999h5.5a11.229,11.229,0,0,0,9.4,5.3,11,11,0,0,0,9.4-5.3H39l-1.3,15H10.4Z"/>
  </g>
</svg>
